{
  "accessors": [
    {
      "bufferView": 2,
      "componentType": 5126,
      "count": 40695,
      "max": [
        0.69520217180252075,
        1.1585373878479004,
        0.88418436050415039
      ],
      "min": [
        -0.57183420658111572,
        -0.019785379990935326,
        -0.62829393148422241
      ],
      "type": "VEC3"
    },
    {
      "bufferView": 2,
      "byteOffset": 488340,
      "componentType": 5126,
      "count": 40695,
      "max": [
        0.99997818470001221,
        0.99987185001373291,
        0.99999594688415527
      ],
      "min": [
        -0.99992561340332031,
        -1,
        -0.99962210655212402
      ],
      "type": "VEC3"
    },
    {
      "bufferView": 1,
      "componentType": 5126,
      "count": 40695,
      "max": [
        0.81074154376983643,
        0.99990999698638916
      ],
      "min": [
        9.002808656077832e-05,
        9.002808656077832e-05
      ],
      "type": "VEC2"
    },
    {
      "bufferView": 1,
      "byteOffset": 325560,
      "componentType": 5126,
      "count": 40695,
      "max": [
        0.81074154376983643,
        0.99990999698638916
      ],
      "min": [
        9.002808656077832e-05,
        9.002808656077832e-05
      ],
      "type": "VEC2"
    },
    {
      "bufferView": 0,
      "componentType": 5125,
      "count": 232596,
      "max": [
        40694
      ],
      "min": [
        0
      ],
      "type": "SCALAR"
    }
  ],
  "asset": {
    "extras": {
      "author": "whitewashstudio (https://sketchfab.com/whitewashstudio)",
      "license": "CC-BY-4.0 (http://creativecommons.org/licenses/by/4.0/)",
      "source": "https://sketchfab.com/3d-models/canon-ae-1-program-35mm-film-camera-03b0ac7d99c44197a09640179f360f3c",
      "title": "Canon AE-1 Program 35mm Film Camera"
    },
    "generator": "Sketchfab-8.30.0",
    "version": "2.0"
  },
  "bufferViews": [
    {
      "buffer": 0,
      "byteLength": 930384,
      "byteOffset": 0,
      "name": "floatBufferViews",
      "target": 34963
    },
    {
      "buffer": 0,
      "byteLength": 651120,
      "byteOffset": 930384,
      "byteStride": 8,
      "name": "floatBufferViews",
      "target": 34962
    },
    {
      "buffer": 0,
      "byteLength": 976680,
      "byteOffset": 1581504,
      "byteStride": 12,
      "name": "floatBufferViews",
      "target": 34962
    }
  ],
  "buffers": [
    {
      "byteLength": 2558184,
      "uri": "scene.bin"
    }
  ],
  "extensionsUsed": [
    "KHR_materials_unlit"
  ],
  "images": [
    {
      "uri": "textures/Default_OBJ_baseColor.png"
    }
  ],
  "materials": [
    {
      "doubleSided": true,
      "emissiveFactor": [
        0,
        0,
        0
      ],
      "extensions": {
        "KHR_materials_unlit": {}
      },
      "name": "Default_OBJ",
      "pbrMetallicRoughness": {
        "baseColorFactor": [
          1,
          1,
          1,
          1
        ],
        "baseColorTexture": {
          "index": 0,
          "texCoord": 0
        },
        "metallicFactor": 0,
        "roughnessFactor": 1
      }
    }
  ],
  "meshes": [
    {
      "primitives": [
        {
          "attributes": {
            "NORMAL": 1,
            "POSITION": 0,
            "TEXCOORD_0": 2,
            "TEXCOORD_1": 3
          },
          "indices": 4,
          "material": 0,
          "mode": 4
        }
      ]
    }
  ],
  "nodes": [
    {
      "children": [
        1
      ],
      "name": "RootNode (gltf orientation matrix)",
      "rotation": [
        -0.70710678118654746,
        -0,
        -0,
        0.70710678118654757
      ]
    },
    {
      "children": [
        2
      ],
      "name": "RootNode (model correction matrix)"
    },
    {
      "children": [
        3
      ],
      "name": "root"
    },
    {
      "children": [
        4
      ],
      "matrix": [
        1,
        0,
        0,
        0,
        0,
        2.2204460492503131e-16,
        1,
        0,
        0,
        -1,
        2.2204460492503131e-16,
        0,
        0,
        0,
        0,
        1
      ],
      "name": "GLTF_SceneRootNode"
    },
    {
      "children": [
        5
      ],
      "matrix": [
        0.44889434582133592,
        0.76081533197836848,
        0.46867248363465908,
        0,
        0.89118096367724353,
        -0.34272370369976812,
        -0.29721533086570934,
        0,
        -0.065500811208215964,
        0.5510902771315771,
        -0.83187087350267719,
        0,
        0,
        0,
        0,
        1
      ],
      "name": "InstantMeshLowPolyExport_0"
    },
    {
      "mesh": 0,
      "name": ""
    }
  ],
  "samplers": [
    {
      "magFilter": 9729,
      "minFilter": 9987,
      "wrapS": 10497,
      "wrapT": 10497
    }
  ],
  "scene": 0,
  "scenes": [
    {
      "name": "OSG_Scene",
      "nodes": [
        0
      ]
    }
  ],
  "textures": [
    {
      "sampler": 0,
      "source": 0
    }
  ]
}

